<svg xmlns="http://www.w3.org/2000/svg" width="138.708" height="68.908" viewBox="0 0 138.708 68.908"><defs><style>.a{opacity:0.504;}.b,.c{fill:#fff;}.b{font-size:26px;font-family:Catamaran-SemiBold, Catamaran;font-weight:600;letter-spacing:-0.025em;}</style></defs><g class="a" transform="translate(-44.757 -52.599)"><text class="b" transform="translate(72.464 95.041)"><tspan x="0" y="0">AUTOERP</tspan></text><path class="c" d="M130.28,69.075a52.39,52.39,0,0,0-7.517-1.682c-6.561-1.166-13.712.286-15.746.07-6.051-.644-9.627-2.8-9.635-7.855q0-.216.01-.431a5.663,5.663,0,0,0-3.254-5.468q-.373-.17-.749-.33a7.358,7.358,0,0,0-7.995,1.4,9.159,9.159,0,0,1-12.97-.243,6.421,6.421,0,0,0-7.011-1.464q-.315.126-.628.258a6.765,6.765,0,0,0-4.122,6.243,9.158,9.158,0,0,1-9.173,9.181q-.215,0-.428-.009a5.831,5.831,0,0,0-5.543,3.5l-.1.227a8.046,8.046,0,0,0,1.508,8.56,9.173,9.173,0,0,1-.093,12.33,7.751,7.751,0,0,0-1.449,8.321l.046.106a6.274,6.274,0,0,0,5.913,3.732,9.163,9.163,0,0,1,9.329,9.288,6.421,6.421,0,0,0,3.859,6.007l.331.141a7.284,7.284,0,0,0,7.857-1.5,9.156,9.156,0,0,1,12.479-.134,7.771,7.771,0,0,0,8.315,1.5l.136-.059a6.3,6.3,0,0,0,3.75-5.924,9.172,9.172,0,0,1,9.927-9.283,7.267,7.267,0,0,0,4.173-.891,11.588,11.588,0,0,1,3.541-1.062.762.762,0,0,0-.12-1.513l-33.006-.131c-.434,0-.862-.021-1.286-.06a.671.671,0,0,0-.118,0c-.428.038-.861.06-1.3.06H79.2a14.858,14.858,0,1,1,0-29.717c.441,0,.876.022,1.307.06a.671.671,0,0,0,.118,0c.424-.038.854-.06,1.288-.06l59.915.4" transform="translate(0)"/></g></svg>