<svg xmlns="http://www.w3.org/2000/svg" xmlns:xlink="http://www.w3.org/1999/xlink" width="132.918" height="64.328" viewBox="0 0 132.918 64.328"><defs><style>.a{fill:#e3731e;font-size:25px;font-family:Catamaran-SemiBold, Catamaran;font-weight:600;letter-spacing:-0.025em;}.b{fill:#301163;}.c{fill:url(#a);}</style><linearGradient id="a" x1="1.621" y1="0.575" x2="-0.344" y2="0.46" gradientUnits="objectBoundingBox"><stop offset="0.447" stop-color="#8a1f4d"/><stop offset="0.502" stop-color="#6b1a54"/><stop offset="0.564" stop-color="#51165b"/><stop offset="0.627" stop-color="#3e1360"/><stop offset="0.692" stop-color="#321163"/><stop offset="0.76" stop-color="#2f1164"/></linearGradient></defs><text class="a" transform="translate(25.918 40.606)"><tspan x="0" y="0">AUTO</tspan><tspan class="b" y="0">ERP</tspan></text><path class="c" d="M169.059,72.868a58.588,58.588,0,0,0-8.317-1.935,23.608,23.608,0,0,0-5.142-.318c-4.888.235-8.343.353-8.877.355-4.723.008-9.3-3-9.308-7.727q0-.226.011-.452a5.156,5.156,0,0,0-2.93-5.008q-.411-.188-.827-.366a7.02,7.02,0,0,0-7.553,1.408,8.553,8.553,0,0,1-11.987-.3,6.141,6.141,0,0,0-6.7-1.342q-.232.094-.461.191a6.318,6.318,0,0,0-3.85,5.827,8.554,8.554,0,0,1-8.567,8.578q-.191,0-.38-.007a5.451,5.451,0,0,0-5.186,3.239l-.1.224a7.3,7.3,0,0,0,1.28,7.873,8.568,8.568,0,0,1,.007,11.681,7.036,7.036,0,0,0-1.4,7.556c.044.1.088.206.133.308a5.843,5.843,0,0,0,5.513,3.46,8.558,8.558,0,0,1,8.712,8.676,5.978,5.978,0,0,0,3.577,5.6l.318.136a6.805,6.805,0,0,0,7.351-1.388,8.551,8.551,0,0,1,11.661-.131,7.278,7.278,0,0,0,7.794,1.393l.125-.053a5.869,5.869,0,0,0,3.476-5.522,8.568,8.568,0,0,1,9.357-8.663,6.513,6.513,0,0,0,3.808-.838,10.852,10.852,0,0,1,3.319-.995.711.711,0,0,0-.121-1.412l-30.827-.121c-.4,0-.805-.021-1.2-.056a.529.529,0,0,0-.11,0c-.4.034-.8.055-1.213.056h-.01a13.877,13.877,0,0,1,0-27.755c.412,0,.819.02,1.221.056a.661.661,0,0,0,.11,0c.4-.036.8-.056,1.2-.056l53.969.211" transform="translate(-88.224 -56.725)"/></svg>