<svg xmlns="http://www.w3.org/2000/svg" xmlns:xlink="http://www.w3.org/1999/xlink" width="591.026" height="541.527" viewBox="0 0 591.026 541.527"><defs><style>.a{fill:url(#a);}.b,.f{fill:#ddd;}.b{mix-blend-mode:multiply;isolation:isolate;}.c{fill:#fff;}.d{fill:#666;}.e{fill:#e9eff2;}.g{fill:#f99779;}.h{fill:#ff551a;}.i{fill:#b5d3cb;}.j{fill:#629bf3;}</style><linearGradient id="a" x1="-0.653" y1="0.508" x2="0.225" y2="0.508" gradientUnits="objectBoundingBox"><stop offset="0" stop-color="#e8eaeb"/><stop offset="1" stop-color="#e8eaeb"/></linearGradient></defs><g transform="translate(-873.307 -831.497)"><path class="a" d="M1437.078,1302.589c-.317,49.781-19.593,97.046-56.466,123.494-152.386,109.3-409.514,77.7-482.41-5.225-73.5-83.615-50.828-167.568-35.611-202.1,31.778-72.116,161.857-40.437,176.5-76.756,17.416-43.207-4.631-108.22,66.073-156.06,88.426-59.831,195.486-25.219,275.005,32.075,64.751,66.274,56.229,109.811,57.19,169.289C1438.688,1269.626,1437.51,1234.705,1437.078,1302.589Z" transform="translate(26.361 -123.184)"/><g transform="translate(969.041 911.618)"><path class="b" d="M1354.417,1032.783H1004.236c-8.515,0-15.424,8.213-15.424,18.348v212.3c0,8.644.024,15.6.024,15.6l.011,2.634h.042c.233,11.749,8.681,21.212,19.086,21.212h131.938v0c-.007,32.005-52.844,40.238-52.844,40.238h-30.285l-.23,7.726h243.219l-.142-7.726h-27.286s-52.842-8.233-52.842-40.243c-.309,0-.6.024-.9.038v-.038h131.573c10.571,0,19.624-9.721,19.624-21.678h-.015l.015-2.063c0-.024.046-7.167.046-15.7v-212.3C1369.843,1041,1362.95,1032.783,1354.417,1032.783Z" transform="translate(-975.582 -1032.783)"/><g transform="translate(0 0.001)"><path class="c" d="M1292.222,1376.132H1049.353l-.231,7.726h243.242Z" transform="translate(-981.382 -1065.803)"/><path class="c" d="M1355.228,1263.427v-212.3c0-10.135-6.893-18.347-15.426-18.347H989.6c-8.515,0-15.425,8.212-15.425,18.347v212.3c0,8.644.024,15.6.024,15.6l.012,2.634h.042c.233,11.749,8.682,21.212,19.087,21.212h342.221c10.572,0,19.624-9.721,19.624-21.678h-.015l.015-2.063C1355.182,1279.106,1355.228,1271.964,1355.228,1263.427Z" transform="translate(-974.174 -1032.784)"/><path class="d" d="M1347.335,1054.928c0-8.091-5.688-13.675-12.7-13.675H996.661c-7.009,0-12.7,5.586-12.7,13.675v198.7c0,8.091.016,14.512.016,14.512l363.284.108s.076-6.529.076-14.62Z" transform="translate(-975.115 -1033.598)"/><rect class="e" width="339.736" height="202.078" transform="translate(20.099 19.51)"/><path class="d" d="M1215.341,1331.607c-.308,0-.6.024-.9.038v-.038H1135.73v0c-.006,32.005-52.844,40.239-52.844,40.239l52.712.091v0h.973l67.628.118.007,0,.91,0,1.761,0-.029-.009,61.332-.206S1215.341,1363.617,1215.341,1331.607Z" transform="translate(-984.629 -1061.521)"/><circle class="f" cx="7.331" cy="7.331" r="7.331" transform="translate(182.054 244.725)"/></g><g transform="translate(67.403 34.935)"><rect class="c" width="241.248" height="167.629"/><rect class="f" width="241.248" height="18.207"/><circle class="g" cx="4.22" cy="4.22" r="4.22" transform="translate(22.012 12.608) rotate(-80.783)"/><circle class="h" cx="4.22" cy="4.22" r="4.22" transform="translate(8.071 4.899)"/><circle class="i" cx="4.22" cy="4.22" r="4.22" transform="translate(37.527 4.899)"/><path class="i" d="M1150.388,1158.8l-8.686,8.688,29.156,28.852,61.439-60.806-9-8.066-52.749,49.637Z" transform="translate(-1057.688 -1076.824)"/><g transform="translate(191.549 55.482)"><path class="j" d="M1260.678,1135.626v39.032a2.8,2.8,0,0,0,2.8,2.807h2.916v20.653l18.469-20.653h62.766a2.8,2.8,0,0,0,2.8-2.807v-39.032a2.8,2.8,0,0,0-2.8-2.806h-84.152A2.808,2.808,0,0,0,1260.678,1135.626Z" transform="translate(-1260.678 -1132.821)"/><g transform="translate(16.521 9.346)"><rect class="c" width="56.72" height="4.628"/><rect class="c" width="56.72" height="4.628" transform="translate(0 10.996)"/><rect class="c" width="31.832" height="4.628" transform="translate(0 21.994)"/></g></g></g></g></g></svg>