<svg xmlns="http://www.w3.org/2000/svg" xmlns:xlink="http://www.w3.org/1999/xlink" width="561.894" height="548.875" viewBox="0 0 561.894 548.875"><defs><style>.a{fill:url(#a);}.b{fill:url(#b);}.c{fill:#666;}.d{fill:#e9eff2;}.e,.f,.x,.z{fill:#fff;}.f{opacity:0.62;}.g{fill:#9eb8ef;opacity:0.999;}.h{fill:#7d97f4;}.i{fill:url(#c);}.j{fill:#bdd0fb;}.k{fill:url(#h);}.l{fill:url(#i);}.m{fill:url(#j);}.n{fill:url(#k);}.o{fill:url(#l);}.p{fill:url(#m);}.q{fill:url(#n);}.r{fill:url(#o);}.s{fill:url(#p);}.t{fill:url(#q);}.u{fill:url(#r);}.v{fill:url(#s);}.w{fill:url(#t);}.x{opacity:0.848;}.y{fill:url(#u);}.z{opacity:0.63;}</style><linearGradient id="a" x1="1.653" y1="0.508" x2="0.775" y2="0.508" gradientUnits="objectBoundingBox"><stop offset="0" stop-color="#e8eaeb"/><stop offset="1" stop-color="#e8eaeb"/></linearGradient><linearGradient id="b" x1="1.058" y1="1.133" x2="0.325" y2="0.336" gradientUnits="objectBoundingBox"><stop offset="0" stop-color="#dae3fe"/><stop offset="1" stop-color="#e9effd"/></linearGradient><linearGradient id="c" x1="0" y1="0.5" x2="1" y2="0.5" xlink:href="#b"/><linearGradient id="h" x1="-0.329" y1="0.97" x2="-1.014" y2="2.08" gradientUnits="objectBoundingBox"><stop offset="0" stop-color="#fdf53f"/><stop offset="0.665" stop-color="#e57a58"/><stop offset="1" stop-color="#d93c65"/></linearGradient><linearGradient id="i" x1="-0.366" y1="0.639" x2="-1.099" y2="2.74" gradientUnits="objectBoundingBox"><stop offset="0" stop-color="#09005d"/><stop offset="1" stop-color="#1a0f91"/></linearGradient><linearGradient id="j" x1="-1.809" y1="0.95" x2="-2.758" y2="2.363" gradientUnits="objectBoundingBox"><stop offset="0" stop-color="#ff928e"/><stop offset="1" stop-color="#feb3b1"/></linearGradient><linearGradient id="k" x1="-2.01" y1="0.393" x2="-1.506" y2="1.967" xlink:href="#j"/><linearGradient id="l" x1="0.391" y1="-0.129" x2="0.783" y2="2.21" xlink:href="#j"/><linearGradient id="m" x1="13.596" y1="-19.034" x2="13.165" y2="-17.356" xlink:href="#j"/><linearGradient id="n" x1="5.269" y1="0.191" x2="5.447" y2="1.601" xlink:href="#i"/><linearGradient id="o" x1="58.346" y1="-61.425" x2="56.348" y2="-56.108" xlink:href="#j"/><linearGradient id="p" x1="-0.46" y1="0.475" x2="-0.281" y2="2.599" xlink:href="#i"/><linearGradient id="q" x1="-17.675" y1="0.685" x2="-16.739" y2="0.685" xlink:href="#i"/><linearGradient id="r" x1="-18.355" y1="1.193" x2="-19.098" y2="2.309" xlink:href="#i"/><linearGradient id="s" x1="-12.876" y1="-3.568" x2="-11.785" y2="-7.246" xlink:href="#j"/><linearGradient id="t" y1="0.5" x2="1" y2="0.5" gradientUnits="objectBoundingBox"><stop offset="0" stop-color="#e1473d"/><stop offset="1" stop-color="#e9605a"/></linearGradient><linearGradient id="u" x1="15.127" y1="-0.076" x2="12.894" y2="4.082" gradientUnits="objectBoundingBox"><stop offset="0" stop-color="#fe7062"/><stop offset="1" stop-color="#ff928e"/></linearGradient></defs><g transform="translate(-159.333 -1501.25)"><path class="a" d="M864.868,1317.687c.594,1.287,35.05,71.442,84.516,108.655,142.759,116.075,333.418,112.307,401.709,24.245,54.673-70.5,59.8-154.392,33.362-214.62-29.771-76.583-151.631-42.942-165.345-81.511-16.316-45.883,7.349-101.858-58.888-152.661-82.84-63.537-210.7-32.841-257.928,22.667-44.609,47.219-63.305,106.406-64.206,169.569C836.84,1281.451,861.473,1312.822,864.868,1317.687Z" transform="translate(-678.709 534.916)"/><g transform="translate(-187.731 1127.482)"><path class="b" d="M802.249,708.669c-38.2,88.3-139.039,126.23-218.047,119.763-21.572-1.766-64.977-5.318-98.867-37.013-58.576-54.78,1.013-255.511,7.244-263,8.023-9.646,63.561-74.275,150.105-73.41C706.047,455.642,826.12,653.489,802.249,708.669Z" transform="translate(-2.691 0)"/><g transform="translate(442.064 573.887)"><path class="c" d="M630.705,1544.646a5.9,5.9,0,0,0,5.882,5.876H954.664a5.9,5.9,0,0,0,5.882-5.876l2.647-182.79c0-3.232-3.808-9.542-10.786-9.068l-310.86-8.043a14.822,14.822,0,0,0-15.21,15.16Z" transform="translate(-604.902 -1344.74)"/><path class="d" d="M673.764,1584.2a5.581,5.581,0,0,0,5.565,5.565H984.245a5.581,5.581,0,0,0,5.565-5.565l2.5-165.938c-.294-9.986-9.049-13.575-14.356-13.363l-297.931-7.993a10.417,10.417,0,0,0-10.688,10.66Z" transform="translate(-642.153 -1389.934)"/><g transform="translate(236.993 15.578)"><path class="e" d="M3037.821,2110.817h-.012a.815.815,0,0,1-.8-.828l.2-13.458a.815.815,0,0,1,.815-.8h.012a.815.815,0,0,1,.8.827l-.2,13.458A.816.816,0,0,1,3037.821,2110.817Z" transform="translate(-2930.452 -2010.959)"/><path class="f" d="M2347.428,1528.2h-.012a.815.815,0,0,1-.8-.828l.756-51.542a9.68,9.68,0,0,0-2.762-7.249c-3.4-3.253-8.786-3.087-9.013-3.076l-95.225-2.554a.815.815,0,0,1-.793-.836.781.781,0,0,1,.838-.793l95.168,2.553c.592-.035,6.332-.134,10.154,3.528a11.256,11.256,0,0,1,3.265,8.435l-.757,51.558A.816.816,0,0,1,2347.428,1528.2Z" transform="translate(-2239.574 -1461.321)"/></g><rect class="c" width="375" height="16.061" rx="5.654" transform="translate(375 220.956) rotate(180)"/></g><g transform="translate(484.096 455.561)"><path class="g" d="M1012.178,460.544,793.118,459.2a12.539,12.539,0,0,0-12.6,13.16l15.071,311.232h243.773L1052.9,505.525Z" transform="translate(-780.501 -459.202)"/><path class="h" d="M2504.063,515.549A12.54,12.54,0,0,1,2492,502.029l2.349-29.719,41.363,44.389Z" transform="translate(-2263.278 -470.559)"/><g transform="translate(30.145 79.451)"><rect class="i" width="107.809" height="16.479" rx="8.239" transform="translate(10.727 66.355)"/><rect class="j" width="39.07" height="16.479" rx="8.239" transform="translate(159.102 66.913)"/><rect class="j" width="39.07" height="16.479" rx="8.239" transform="translate(158.529 100.058)"/><rect class="j" width="39.07" height="16.479" rx="8.239" transform="translate(158.397 131.468)"/><rect class="j" width="39.07" height="16.479" rx="8.239" transform="translate(157.823 164.613)"/><rect class="i" width="93.304" height="16.479" rx="8.239" transform="translate(12.098 100.601)"/><rect class="i" width="111.007" height="16.479" rx="7.762" transform="translate(13.011 132.364)"/><rect class="i" width="121.514" height="16.479" rx="6.772" transform="translate(15.752 164.092)"/><rect class="i" width="178.116" height="20.608" rx="10.304" transform="translate(16.469)"/><path class="j" d="M1015.268,1365.638h207.287l.414-11.057a9.813,9.813,0,0,0-10.12-9.953H1024.78c-5.8,0-10.415,4.543-10.112,10.117Z" transform="translate(-1013.512 -1305.768)"/><g transform="translate(0 37.689)"><path class="j" d="M1200.153,1500.892H1025.17a11.1,11.1,0,0,1-11.252-10.315l-7.8-143.25a10.588,10.588,0,0,1,2.938-7.92,11.48,11.48,0,0,1,8.314-3.538h188.07a11.5,11.5,0,0,1,8.247,3.468,10.607,10.607,0,0,1,3.013,7.807l-5.291,143.25A11.059,11.059,0,0,1,1200.153,1500.892Zm-182.779-162.74a9.185,9.185,0,0,0-6.656,2.825,8.327,8.327,0,0,0-2.316,6.226l7.8,143.25a8.822,8.822,0,0,0,8.971,8.155h174.984a8.784,8.784,0,0,0,8.978-8.3l5.292-143.25a8.344,8.344,0,0,0-2.376-6.138,9.2,9.2,0,0,0-6.6-2.769Z" transform="translate(-1006.106 -1335.868)"/></g></g><rect class="j" width="81.838" height="32.817" rx="16.409" transform="translate(30.083 25.903)"/></g><g transform="translate(543 681.963)"><path class="k" d="M1849.56,2722.294c2.053.286,14.016,6.5,13.559-1.371l-.51-8.788S1848.97,2722.212,1849.56,2722.294Z" transform="translate(-1765.601 -2637.499)"/><path class="l" d="M1473.4,3077.806a9.378,9.378,0,0,0-6.37-1.542c-2.465.581-5.26,2.953-7.048,4.7a1,1,0,0,0-.211,1.153,1.056,1.056,0,0,0,1.039.589c4.665-.368,13.788-1.177,13.748-1.865A12.1,12.1,0,0,0,1473.4,3077.806Z" transform="translate(-1427.829 -2952.897)"/><path class="m" d="M1531.228,3049.4l-1.909,4.174s-4.821.679-4.773-1.236a13.717,13.717,0,0,1,1.106-4.287Z" transform="translate(-1484.031 -2928.528)"/><path class="h" d="M1585.334,2752.884c-4.424-18.145-4.531-29.355-4.531-29.355s-41.645-22.281-45.115-16.183-12.065,46.832-12.065,46.832l7.4,1.562,7.641-14.479s5.374-14.18,5.523-21.362c4.266,11.535,9.235,39.4,36.86,38.606a4.552,4.552,0,0,0,4.289-5.621Z" transform="translate(-1483.232 -2632.434)"/><path class="n" d="M1331.79,3057.951l-4.2,4.467-3.7-3.291,4.3-5.588Z" transform="translate(-1310.188 -2933.285)"/><path class="o" d="M1999.858,2360.461l4.508,13.467a1.594,1.594,0,0,1-.432,1.706,12.775,12.775,0,0,1-12.787,2.176,2.22,2.22,0,0,1-1.41-1.841l-1.572-11.869Z" transform="translate(-1885.701 -2332.816)"/><g transform="translate(82.606)"><path class="p" d="M1908.232,2235.53s1.479,12.9,6.31,16.99,14.531,1.371,18.044-8.231l-6.025-16.744Z" transform="translate(-1899.056 -2217.66)"/><path class="q" d="M1866.279,2175.142a.637.637,0,0,1-.814-.532,16.609,16.609,0,0,0-1.385-5.176s.517-1.674-4.285.745-12.013,5.969-16.138,3.627c-4.022-2.283-7.859-13.33,2.871-11.012a.636.636,0,0,0,.775-.645c-.084-1.8.207-5.931,4.429-7.144,3.952-1.136,6.049.691,6.9,1.783a.633.633,0,0,0,.991.011c1.215-1.5,4.491-4.675,9.127-2.48,3.819,1.808,4.355,4.205,4.251,5.687a.634.634,0,0,0,.887.629c1.2-.513,3.11-.745,4.872,1.59,2.436,3.228-1.242,5.869-2.342,6.558a.636.636,0,0,0-.3.517c-.055,1.643-.2,8.958-3.906,12.9-.32.342-1.193.068-1.362-.369l-2.587-6.664a.639.639,0,0,0-.776-.382Z" transform="translate(-1839.555 -2153.569)"/><path class="r" d="M2035.9,2289.767s1.875-6.833,4.38-4.53-.863,7.13-3.827,7.987Z" transform="translate(-2009.665 -2267.233)"/></g><path class="s" d="M1240.786,3092.865c-1.087.075-5.778-1.669-5.778-1.669l-4.2,1.385a13.649,13.649,0,0,0-8.939,2.5,1.228,1.228,0,0,0,.742,2.241c4.21-.174,11.121-.505,14.607-.918C1242.446,3095.792,1243.249,3095.9,1240.786,3092.865Z" transform="translate(-1221.337 -2965.91)"/><path class="t" d="M1439.743,2539.255l-10.995-30.186a3.147,3.147,0,0,0-2.924-2.07l-12.487-.129a1.767,1.767,0,0,0-1.649,2.448l12,28.74a2.587,2.587,0,0,0,2.277,1.587l12.326.649Z" transform="translate(-1386.134 -2459.663)"/><path class="u" d="M1603.652,2723.447l.06,0,26.02-2.833a1.172,1.172,0,0,0-.254-2.329l-26.02,2.833a1.171,1.171,0,0,0,.194,2.334Z" transform="translate(-1551.494 -2642.815)"/><path class="v" d="M1670.619,2688.094s-4.734,6.888-19.872-.778c0,0-4.359-3.567-8.594-2.893s-6.99,6.65-6.99,6.65l8.212-.646s12.218,13.188,36.082,11.8C1679.816,2696.881,1674.1,2692.695,1670.619,2688.094Z" transform="translate(-1579.867 -2613.417)"/><path class="d" d="M1908.609,2449.325c-3.076.866-6.341,4.361-8.625,7.277a20.04,20.04,0,0,0-3.766,7.912c-1.5,6.526-4.87,19.32-7.512,20.678,6.647,8.366,7.848,11.16,7.848,11.16-.55,10.475-2.847,12.7-2.847,12.7s12.686,11.209,27.41,13.755c12.665-10.509,13.071-38.492,13.071-38.492C1933.306,2451.2,1917.732,2446.757,1908.609,2449.325Z" transform="translate(-1799.533 -2409.278)"/><path class="w" d="M1944.706,2642.38a.3.3,0,0,1-.226-.513c.114-.111,11.435-11.214,13.868-24.764a.3.3,0,0,1,.589.106c-2.468,13.743-13.925,24.976-14.041,25.088A.3.3,0,0,1,1944.706,2642.38Z" transform="translate(-1847.775 -2554.952)"/><path class="h" d="M1445.011,2775.81s-4.927,18.053-34.9,9.834c-14.532-3.985-36.109-30.73-36.109-30.73s-4.14,13.785-28.817,33.383l-6.015-4.8s23.439-46.4,37.05-42.519S1448.42,2764.086,1445.011,2775.81Z" transform="translate(-1323.426 -2662.285)"/><path class="j" d="M1435.25,2522.98l11.651,27.371,10.633-.9-10.046-26.326Z" transform="translate(-1406.667 -2473.619)"/></g><g transform="translate(677.05 649.803)"><g transform="translate(0)"><path class="c" d="M2361.854,1921.284c.735,26.246,3.119,116.777,1.98,148.858-.12,3.4-3.2,6.126-7.036,6.238-18.987.55-88.591,1.944-119.647.791-6.468-.24-11.612-4.879-11.746-10.609-.646-27.549-2.069-105.031,1.315-140.526.406-4.253,4.176-7.639,8.973-8.064,20.677-1.831,90.581-6.308,117.411-4.766C2357.943,1913.483,2361.734,1916.992,2361.854,1921.284Z" transform="translate(-2224.551 -1912.887)"/><rect class="d" width="121.715" height="37.688" rx="18.844" transform="translate(10.136 12.245)"/><path class="x" d="M2332.94,2044.508a5.087,5.087,0,0,1,3.6-1.487l99.45.188a5.09,5.09,0,0,1,5.066,4.706l1.673,22.094c.138,1.809-2.861,3.277-6.65,3.256l-97.766-.553c-3.783-.021-6.884-1.519-6.883-3.325l.01-21.276A5.088,5.088,0,0,1,2332.94,2044.508Z" transform="translate(-2317.153 -2025.633)"/><path class="e" d="M3012.479,2409.284a7.1,7.1,0,0,0,7.105,7.1h8.65a7.1,7.1,0,0,0,7.105-7.1h0a7.105,7.105,0,0,0-7.105-7.1h-8.65a7.105,7.105,0,0,0-7.105,7.1Z" transform="translate(-2907.196 -2336.8)"/><path class="e" d="M2772.039,2409.284a7.1,7.1,0,0,0,7.105,7.1h8.649a7.1,7.1,0,0,0,7.105-7.1h0a7.105,7.105,0,0,0-7.105-7.1h-8.649a7.105,7.105,0,0,0-7.105,7.1Z" transform="translate(-2698.884 -2336.8)"/><path class="e" d="M2540.846,2409.284a7.1,7.1,0,0,0,7.105,7.1h8.649a7.105,7.105,0,0,0,7.105-7.1h0a7.106,7.106,0,0,0-7.105-7.1h-8.649a7.105,7.105,0,0,0-7.105,7.1Z" transform="translate(-2498.582 -2336.8)"/><path class="y" d="M2306.487,2416.344a7.22,7.22,0,0,0,7.22,7.22h8.36a7.22,7.22,0,0,0,7.221-7.22h0a7.22,7.22,0,0,0-7.221-7.22h-8.36a7.22,7.22,0,0,0-7.22,7.22Z" transform="translate(-2295.539 -2342.817)"/><path class="e" d="M3012.479,2575.743a7.105,7.105,0,0,0,7.105,7.105h8.65a7.105,7.105,0,0,0,7.105-7.105h0a7.1,7.1,0,0,0-7.105-7.1h-8.65a7.1,7.1,0,0,0-7.105,7.1Z" transform="translate(-2907.196 -2481.017)"/><path class="e" d="M2772.039,2575.743a7.105,7.105,0,0,0,7.105,7.105h8.649a7.105,7.105,0,0,0,7.105-7.105h0a7.1,7.1,0,0,0-7.105-7.1h-8.649a7.1,7.1,0,0,0-7.105,7.1Z" transform="translate(-2698.884 -2481.017)"/><path class="e" d="M2540.846,2575.743a7.105,7.105,0,0,0,7.105,7.105h8.649a7.106,7.106,0,0,0,7.105-7.105h0a7.105,7.105,0,0,0-7.105-7.1h-8.649a7.1,7.1,0,0,0-7.105,7.1Z" transform="translate(-2498.582 -2481.017)"/><path class="e" d="M2300.406,2575.743a7.105,7.105,0,0,0,7.105,7.105h8.65a7.105,7.105,0,0,0,7.1-7.105h0a7.1,7.1,0,0,0-7.1-7.1h-8.65a7.1,7.1,0,0,0-7.105,7.1Z" transform="translate(-2290.271 -2481.017)"/><g transform="translate(42.263 107.32)"><path class="z" d="M3012.479,2723.164a7.105,7.105,0,0,0,7.105,7.1h8.65a7.105,7.105,0,0,0,7.105-7.1h0a7.105,7.105,0,0,0-7.105-7.1h-8.65a7.105,7.105,0,0,0-7.105,7.1Z" transform="translate(-2949.459 -2716.059)"/><path class="z" d="M2772.039,2723.164a7.105,7.105,0,0,0,7.105,7.1h8.649a7.105,7.105,0,0,0,7.105-7.1h0a7.105,7.105,0,0,0-7.105-7.1h-8.649a7.105,7.105,0,0,0-7.105,7.1Z" transform="translate(-2741.147 -2716.059)"/><path class="e" d="M2540.846,2723.164a7.105,7.105,0,0,0,7.105,7.1h8.649a7.105,7.105,0,0,0,7.105-7.1h0a7.105,7.105,0,0,0-7.105-7.1h-8.649a7.105,7.105,0,0,0-7.105,7.1Z" transform="translate(-2540.846 -2716.059)"/></g><g transform="translate(42.263 128.944)"><path class="e" d="M3012.479,2885a7.105,7.105,0,0,0,7.105,7.1h8.65a7.105,7.105,0,0,0,7.105-7.1h0a7.105,7.105,0,0,0-7.105-7.105h-8.65a7.105,7.105,0,0,0-7.105,7.105Z" transform="translate(-2949.459 -2877.894)"/><path class="e" d="M2772.039,2885a7.105,7.105,0,0,0,7.105,7.1h8.649a7.105,7.105,0,0,0,7.105-7.1h0a7.105,7.105,0,0,0-7.105-7.105h-8.649a7.105,7.105,0,0,0-7.105,7.105Z" transform="translate(-2741.147 -2877.894)"/><path class="e" d="M2540.846,2885a7.105,7.105,0,0,0,7.105,7.1h8.649a7.106,7.106,0,0,0,7.105-7.1h0a7.106,7.106,0,0,0-7.105-7.105h-8.649a7.105,7.105,0,0,0-7.105,7.105Z" transform="translate(-2540.846 -2877.894)"/></g><rect class="e" width="18.535" height="35.217" rx="9.268" transform="translate(13.225 109.246)"/></g></g></g></g></svg>